<svg xmlns="http://www.w3.org/2000/svg" width="22.453" height="22.642" viewBox="0 0 22.453 22.642">
  <g id="customer-support" transform="translate(-0.113 0.16)">
    <path id="Path_2054" data-name="Path 2054" d="M.361,2.106,1.837,4.688a.369.369,0,0,0,.231.175l1.377.344L8.166,9.928l.522-.522-4.8-4.8a.368.368,0,0,0-.171-.1L2.4,4.183l-1.256-2.2L2.219.906l2.2,1.258.332,1.323a.368.368,0,0,0,.1.171l4.8,4.8.522-.522L5.444,3.21,5.1,1.834A.369.369,0,0,0,4.925,1.6L2.343.127A.369.369,0,0,0,1.9.187L.425,1.662a.369.369,0,0,0-.063.443Zm0,0" transform="translate(-0.039 -0.076)" fill="#2d395a" stroke="#2d395a" stroke-width="0.3"/>
    <path id="Path_2055" data-name="Path 2055" d="M182.618,174.241l-8.115,8.115-.522-.522,8.115-8.115Zm0,0" transform="translate(-166.96 -166.971)" fill="#2d395a" stroke="#2d395a" stroke-width="0.3"/>
    <path id="Path_2056" data-name="Path 2056" d="M51.758,399.014a.369.369,0,0,0-.316-.179H49.229a.369.369,0,0,0-.316.179l-1.107,1.844a.369.369,0,0,0,0,.38l1.107,1.844a.369.369,0,0,0,.316.179h2.213a.369.369,0,0,0,.316-.179l1.107-1.844a.369.369,0,0,0,0-.38Zm-.525,3.51h-1.8l-.885-1.475.885-1.476h1.8l.885,1.476Zm0,0" transform="translate(-45.635 -383.342)" fill="#2d395a" stroke="#2d395a" stroke-width="0.3"/>
    <path id="Path_2057" data-name="Path 2057" d="M17.98,8.854a4.411,4.411,0,0,0,4.291-5.5.369.369,0,0,0-.619-.172l-2.3,2.295-1.822-.607-.608-1.821,2.3-2.3a.369.369,0,0,0-.173-.619,4.413,4.413,0,0,0-5.5,4.291,4.33,4.33,0,0,0,.09.864L5.564,13.37a4.352,4.352,0,0,0-.864-.09,4.426,4.426,0,1,0,4.426,4.427,4.341,4.341,0,0,0-.09-.864l1.934-1.934.846.846a.369.369,0,0,0,.522,0l.184-.185a.414.414,0,0,1,.586.584h0l-.184.184a.369.369,0,0,0,0,.522l4.4,4.4a2.977,2.977,0,1,0,4.229-4.191l-.019-.019-4.4-4.4a.369.369,0,0,0-.522,0l-.184.184a.414.414,0,0,1-.586-.584h0l.185-.185a.369.369,0,0,0,0-.522l-.846-.846,1.934-1.934a4.34,4.34,0,0,0,.864.09ZM19.429,21.4a2.241,2.241,0,0,1-.785-.143l2.881-2.881a2.237,2.237,0,0,1-2.1,3.024ZM15.25,11.808a1.151,1.151,0,0,0,1.623,1.621l4.14,4.143c.045.045.087.093.128.141l-3.154,3.154c-.048-.041-.1-.083-.141-.128L13.7,16.6a1.151,1.151,0,0,0-1.623-1.621l-.59-.59,3.17-3.166ZM16.74,8.1,8.372,16.465a.369.369,0,0,0-.1.351,3.713,3.713,0,1,1-2.682-2.683.372.372,0,0,0,.351-.1l8.366-8.367a.369.369,0,0,0,.1-.35A3.671,3.671,0,0,1,18.189.744L16.243,2.691a.369.369,0,0,0-.089.377l.738,2.213a.369.369,0,0,0,.234.233l2.213.738a.369.369,0,0,0,.377-.089l1.946-1.946c0,.07.007.14.007.209A3.67,3.67,0,0,1,17.088,8a.369.369,0,0,0-.351.1h0Zm0,0" transform="translate(0 0)" fill="#2d395a" stroke="#2d395a" stroke-width="0.3"/>
    <path id="Path_2058" data-name="Path 2058" d="M387.1,386.314l-.522.522-3.689-3.689.522-.522Zm0,0" transform="translate(-367.753 -367.761)" fill="#2d395a" stroke="#2d395a" stroke-width="0.3"/>
  </g>
</svg>
